<?xml version="1.0" standalone="no"?>
<!DOCTYPE svg PUBLIC "-//W3C//DTD SVG 20010904//EN"
 "http://www.w3.org/TR/2001/REC-SVG-20010904/DTD/svg10.dtd">
<svg version="1.0" xmlns="http://www.w3.org/2000/svg"
 width="1254.000000pt" height="1254.000000pt" viewBox="0 0 1254.000000 1254.000000"
 preserveAspectRatio="xMidYMid meet">

<g transform="translate(0.000000,1254.000000) scale(0.100000,-0.100000)"
fill="#000000" stroke="none">
<path d="M6878 9928 c-6 -103 -40 -236 -69 -262 -9 -8 -10 -6 -4 9 13 34 12
75 -1 93 -7 9 -14 29 -14 45 0 40 -12 33 -45 -28 -41 -76 -136 -187 -227 -265
-108 -91 -185 -181 -198 -231 -23 -85 -31 -26 -28 197 l3 219 29 55 c16 30 46
82 67 116 22 34 39 64 39 68 0 16 -91 -60 -127 -105 -21 -26 -42 -48 -48 -48
-5 -1 -26 21 -45 49 -27 38 -39 48 -55 43 -49 -15 -65 -11 -95 24 -68 77 -44
3 40 -127 68 -104 80 -158 80 -355 0 -88 -4 -166 -9 -173 -6 -10 -16 -1 -35
33 -35 60 -144 175 -210 222 -28 20 -72 57 -98 82 l-48 45 -21 -23 c-13 -14
-29 -21 -40 -18 -20 5 -24 -2 -11 -19 4 -5 -1 0 -11 10 -57 62 -114 202 -123
307 -8 82 -18 84 -15 1 3 -91 20 -170 58 -265 19 -49 31 -93 26 -97 -4 -4 -71
-24 -149 -44 -330 -84 -637 -209 -889 -362 -60 -36 -126 -76 -145 -87 -19 -11
-51 -35 -70 -52 -20 -17 -58 -46 -85 -65 -121 -81 -383 -330 -507 -480 -68
-83 -167 -218 -249 -340 -59 -89 -204 -364 -243 -461 l-18 -44 -28 35 c-43 53
-43 33 1 -40 42 -69 83 -187 76 -223 -3 -19 -5 -17 -13 10 -7 26 -9 10 -11
-77 -2 -140 -61 -418 -83 -393 -4 4 -15 40 -24 78 -19 78 -36 115 -36 78 0
-12 -5 -23 -11 -25 -7 -2 -5 -32 6 -93 35 -191 34 -195 -27 -115 -24 32 -76
71 -185 140 -84 52 -159 104 -167 114 -12 18 -15 18 -29 4 -9 -9 -13 -18 -10
-22 4 -3 1 -6 -5 -6 -27 0 -8 -23 63 -76 41 -31 75 -58 75 -60 0 -2 -17 6 -37
18 -60 36 -161 137 -211 212 -52 77 -77 96 -66 49 4 -15 15 -45 25 -65 25 -50
25 -51 -18 -44 -95 17 -95 17 -90 42 5 28 7 28 -29 9 -23 -12 -59 -15 -164
-13 l-135 2 -80 -55 c-61 -42 -81 -62 -89 -87 -8 -28 -6 -36 15 -59 13 -15 16
-21 6 -14 -9 8 -20 11 -24 8 -8 -9 17 -38 28 -31 5 3 14 2 20 -2 8 -4 7 -9 -2
-14 -22 -14 10 -43 40 -37 29 6 64 -9 56 -24 -8 -12 40 -30 61 -22 15 5 34 42
34 65 0 5 -7 8 -15 4 -18 -6 -18 -3 -4 47 5 21 14 35 19 32 5 -3 11 3 13 12 4
17 5 17 6 1 1 -21 21 -24 21 -4 0 8 7 16 15 20 8 3 15 14 15 25 0 10 7 21 15
25 9 3 15 0 15 -10 0 -9 6 -14 13 -11 6 2 11 12 11 21 -1 9 2 16 7 16 5 0 9
-5 9 -11 0 -6 8 -9 17 -6 10 2 30 -2 44 -10 23 -10 29 -10 40 3 11 13 15 12
38 -9 14 -13 38 -31 54 -40 22 -14 26 -23 21 -42 -3 -14 -1 -31 5 -38 6 -8 9
-22 7 -33 -5 -25 16 -54 42 -59 30 -5 65 -26 79 -45 7 -10 25 -20 40 -24 16
-4 43 -25 63 -50 19 -25 40 -44 45 -43 6 1 31 -9 57 -22 57 -29 60 -41 56
-178 -2 -79 1 -105 15 -136 15 -30 21 -81 29 -218 10 -174 10 -180 -12 -231
-12 -29 -32 -64 -44 -78 -13 -15 -6 -12 19 9 49 42 96 106 123 169 24 55 52
185 52 239 0 42 22 178 40 243 11 40 12 41 30 25 10 -9 23 -28 29 -43 16 -42
41 -160 41 -197 0 -58 -21 -175 -47 -265 -48 -161 -167 -281 -501 -504 -40
-27 -91 -69 -113 -94 -54 -61 -113 -172 -138 -259 -12 -40 -24 -73 -26 -73 -3
0 -13 17 -24 37 l-19 38 -7 -58 c-14 -112 14 -214 83 -305 14 -18 22 -35 19
-39 -15 -14 15 -44 41 -41 21 2 26 -1 24 -16 -2 -11 1 -15 7 -11 6 3 11 2 11
-4 0 -13 46 -44 69 -46 9 0 28 -9 41 -18 26 -18 50 -22 50 -8 0 4 -15 41 -34
82 -44 95 -71 189 -58 198 13 8 32 78 32 118 0 18 8 46 19 64 15 25 17 36 8
58 -8 23 -6 37 10 72 21 45 200 239 220 239 14 0 104 86 125 120 l16 25 18
-38 c11 -22 23 -36 31 -33 7 3 19 -4 27 -16 12 -16 25 -21 56 -20 41 2 49 -5
29 -25 -16 -16 -4 -30 23 -28 20 2 23 7 21 41 -1 21 0 32 4 24 3 -8 25 -69 50
-135 24 -66 65 -163 90 -216 l45 -97 38 5 c91 12 388 -118 573 -250 240 -172
407 -418 462 -680 17 -78 19 -133 4 -79 -5 17 -14 32 -19 32 -10 0 -26 59 -29
104 0 16 -3 32 -6 34 -3 3 -5 -46 -5 -109 0 -134 -10 -180 -78 -354 -68 -176
-81 -205 -91 -205 -5 0 -21 39 -36 88 -42 136 -43 138 -81 150 -38 11 -40 8
-24 -48 6 -19 13 -51 16 -70 3 -19 13 -60 21 -90 18 -63 19 -207 2 -224 -13
-13 -277 78 -384 132 -94 47 -156 94 -265 201 -54 53 -83 75 -92 69 -10 -6
-10 -8 -1 -8 7 0 10 -7 6 -17 -4 -9 -2 -14 3 -10 6 3 9 -8 8 -26 -1 -18 3 -38
9 -46 9 -12 9 -13 0 -7 -28 16 -72 93 -66 115 3 12 1 21 -6 21 -5 0 -8 -7 -5
-15 15 -38 -8 -8 -44 58 -41 75 -83 193 -103 285 -8 40 -14 50 -23 43 -9 -8
-11 -26 -5 -63 11 -79 56 -263 86 -346 14 -40 23 -75 20 -78 -3 -3 -45 15 -93
39 -49 24 -100 48 -114 52 -24 7 -24 7 -9 -11 32 -37 33 -47 8 -39 -13 3 10
-13 51 -38 218 -127 198 -109 265 -243 33 -67 66 -129 74 -138 13 -15 13 -19
0 -27 -8 -5 -19 -9 -26 -9 -6 0 -18 -6 -25 -13 -51 -49 -145 -81 -271 -91 -56
-4 -68 -3 -64 8 6 15 -31 26 -87 26 -17 0 -70 9 -118 19 -96 20 -193 71 -278
148 -45 40 -49 42 -55 23 -3 -11 -11 -20 -17 -20 -5 0 -8 -7 -4 -15 3 -8 1
-15 -4 -15 -16 0 -12 -17 6 -24 8 -3 13 -2 10 3 -3 5 10 1 29 -7 19 -9 35 -22
35 -29 0 -7 5 -13 11 -13 5 0 7 5 3 12 -4 7 -3 8 4 4 6 -4 9 -13 6 -21 -4 -8
1 -17 9 -21 9 -3 14 -11 11 -18 -7 -17 30 -48 61 -52 27 -2 54 -19 68 -41 4
-7 19 -13 32 -13 13 0 30 -8 37 -18 16 -21 78 -52 106 -52 11 0 22 -5 24 -10
5 -15 147 -42 186 -36 17 2 32 1 32 -5 0 -21 291 -1 298 20 2 5 11 7 21 4 22
-6 170 43 263 86 106 50 118 50 193 2 37 -22 70 -41 74 -41 5 0 20 -9 34 -21
15 -11 61 -38 104 -61 77 -40 126 -73 173 -116 56 -51 327 -170 366 -161 5 1
16 -1 24 -4 22 -9 172 -48 192 -50 9 -1 14 -5 12 -9 -3 -4 28 -23 68 -42 185
-87 387 -125 566 -106 59 5 141 19 182 30 41 10 85 17 97 14 13 -4 36 -1 53 4
21 8 30 8 30 0 0 -12 556 -3 670 12 41 5 110 13 153 16 42 4 77 11 77 16 0 5
10 8 23 7 12 -1 29 1 37 4 8 3 39 8 69 11 30 3 57 9 60 13 3 5 15 9 26 11 11
2 31 5 45 7 14 3 61 11 105 19 l79 15 54 -31 c91 -52 207 -73 232 -43 8 9 21
13 37 9 24 -6 119 33 108 44 -10 10 17 31 32 25 10 -4 30 10 58 40 48 53 79
97 68 97 -5 0 -1 5 7 11 11 7 12 12 3 15 -16 7 -5 34 13 34 8 0 14 6 14 14 0
19 55 64 102 83 21 8 38 19 38 24 0 5 9 9 21 9 12 0 34 14 50 31 16 17 33 28
38 24 12 -7 56 19 88 52 12 13 30 23 39 23 9 0 25 10 36 22 11 13 25 23 31 24
7 0 17 2 24 2 6 1 15 11 18 22 4 11 11 18 16 14 9 -5 61 29 60 40 -2 17 2 23
26 40 14 11 23 14 19 8 -3 -6 -2 -13 3 -16 5 -4 12 2 15 12 3 10 26 39 51 65
42 45 65 58 65 37 0 -5 5 -10 12 -10 9 0 9 3 0 12 -8 8 0 21 33 50 25 22 42
45 38 50 -4 7 -1 8 6 4 8 -5 12 -3 10 5 -5 39 9 47 38 24 9 -8 6 -15 -15 -32
-15 -13 -22 -23 -17 -23 14 1 71 54 85 80 7 12 8 20 2 16 -6 -3 -11 19 -14 54
-5 66 -14 81 -51 83 -24 2 -26 16 -5 44 6 8 -1 13 -23 18 -28 6 -37 2 -88 -48
-121 -117 -309 -261 -486 -372 -158 -100 -348 -196 -391 -198 -34 -3 -63 -24
-78 -60 -3 -8 -9 -6 -17 8 -21 33 -149 162 -190 191 -59 41 -220 92 -330 105
-83 9 -105 9 -152 -5 -30 -9 -66 -16 -79 -16 -56 -1 -264 -79 -315 -120 -15
-11 -46 -29 -69 -39 -23 -11 -62 -37 -86 -59 -40 -37 -138 -97 -138 -85 0 3
10 21 22 41 15 24 17 33 7 30 -8 -2 -36 -39 -64 -80 -27 -42 -65 -86 -83 -99
-19 -13 -38 -34 -43 -47 -6 -15 -30 -33 -71 -52 -35 -15 -74 -37 -88 -48 -73
-57 -259 -130 -246 -96 8 21 -5 17 -58 -16 -26 -17 -45 -26 -41 -20 9 15 -15
12 -79 -10 -95 -32 -208 -46 -256 -30 -51 17 -41 23 70 45 123 25 288 80 344
115 51 33 57 47 12 30 -15 -5 -48 -10 -74 -10 -102 0 -563 95 -609 125 -12 8
-29 15 -37 15 -8 0 -18 5 -22 12 -4 7 -3 8 4 4 7 -4 12 -1 12 8 0 18 30 29 56
20 12 -4 15 -3 7 3 -17 12 -11 19 107 111 58 45 115 97 127 116 29 45 40 86
23 86 -23 0 -134 44 -121 48 8 3 6 9 -6 18 -16 13 -11 14 45 8 62 -7 62 -6 62
19 0 14 7 32 15 41 13 13 9 17 -37 35 -29 11 -50 20 -47 20 3 1 73 -15 155
-34 262 -61 576 -91 844 -82 251 9 361 24 460 62 106 42 218 65 309 65 55 0
97 9 188 39 547 180 1003 513 1366 1000 330 442 531 955 587 1497 17 165 21
183 30 159 5 -11 36 -48 69 -82 34 -34 61 -67 61 -73 0 -20 16 -10 27 18 l10
27 11 -27 c6 -15 23 -35 38 -44 34 -23 135 -129 151 -159 14 -26 7 -59 -11
-48 -6 4 -5 -1 3 -10 12 -16 16 -16 31 -2 23 21 79 9 90 -19 4 -12 17 -30 29
-40 12 -11 21 -31 21 -47 0 -15 8 -41 17 -57 16 -28 16 -37 -1 -153 -28 -183
-32 -166 50 -198 77 -30 167 -87 159 -101 -3 -4 4 -29 15 -55 11 -26 20 -51
20 -56 0 -14 -42 -37 -82 -44 l-37 -7 2 42 c2 58 -34 91 -90 83 -28 -4 -43 -1
-52 11 -7 9 -25 16 -40 16 -15 0 -45 9 -66 20 -22 11 -53 24 -70 29 -16 5 -38
12 -47 16 -16 6 -17 1 -13 -50 6 -61 20 -99 34 -90 5 3 12 -2 15 -11 8 -22 8
-26 -4 -19 -16 10 -12 -12 11 -65 14 -34 19 -58 14 -77 -3 -15 -40 -95 -81
-176 -41 -82 -70 -146 -65 -142 6 3 11 1 11 -6 0 -6 10 1 22 17 36 48 41 51
36 22 -3 -15 -1 -25 3 -22 5 3 22 -2 40 -11 17 -9 39 -18 49 -20 18 -4 20 -1
65 100 15 33 29 55 32 49 2 -6 -7 -36 -20 -65 -13 -30 -22 -60 -20 -66 9 -26
123 -5 123 22 0 17 31 28 43 16 13 -13 57 8 57 26 0 8 4 12 9 9 5 -3 11 1 15
9 3 8 13 15 22 15 23 0 65 47 58 65 -4 11 1 15 17 16 13 0 18 3 11 6 -10 4
-10 8 -1 19 6 8 15 11 20 8 5 -3 6 2 3 11 -5 11 -2 14 9 9 18 -7 25 15 25 84
1 24 6 50 13 58 9 11 8 19 -7 35 -15 17 -16 22 -4 29 11 7 11 15 -5 49 -10 22
-26 43 -35 46 -22 7 -57 45 -42 45 7 0 12 7 12 15 0 25 22 65 33 58 6 -3 7 -1
3 5 -11 18 5 82 20 82 8 0 14 5 14 11 0 5 -5 7 -11 3 -18 -10 -1 48 17 62 15
12 20 29 5 20 -4 -3 -8 47 -7 112 0 119 -9 170 -45 250 -26 57 -20 208 9 232
10 8 21 23 25 34 5 11 13 16 23 12 9 -4 28 4 45 19 16 13 36 22 44 19 9 -4 15
0 15 10 0 10 9 16 23 16 26 0 61 33 71 66 7 21 46 64 46 49 0 -4 9 3 20 16 11
14 19 18 20 11 0 -8 15 1 32 19 21 21 28 34 20 37 -6 2 -9 8 -6 13 7 13 -15
41 -27 33 -5 -3 -9 1 -9 10 0 8 -6 16 -12 18 -9 3 -3 16 15 37 15 18 27 28 27
22 0 -13 52 -3 62 12 11 17 10 27 -2 27 -5 0 -10 13 -10 30 0 27 2 29 29 24
23 -5 29 -2 34 16 6 25 -1 52 -13 45 -11 -7 -21 39 -14 59 3 9 17 16 30 16 30
0 32 7 36 95 3 62 5 70 22 67 11 -2 16 1 14 10 -3 7 -12 12 -22 10 -12 -2 -16
5 -16 33 0 19 -4 35 -8 35 -5 0 -18 9 -30 20 l-22 21 0 -58 c0 -82 -26 -219
-52 -278 -53 -119 -98 -182 -191 -264 -51 -44 -114 -96 -142 -114 -103 -67
-232 -147 -239 -147 -26 0 24 187 110 412 35 92 64 171 64 175 0 4 -7 -2 -15
-13 -14 -18 -14 -18 -15 6 0 33 -11 20 -59 -75 -45 -90 -141 -371 -141 -415 0
-30 -25 -63 -43 -57 -6 2 -17 22 -25 46 -12 36 -17 42 -39 39 -22 -3 -31 5
-59 56 -46 83 -83 203 -91 291 -3 41 -9 75 -13 75 -17 0 -20 -131 -4 -192 22
-85 33 -158 24 -163 -4 -2 -23 5 -43 15 -20 11 -40 19 -44 19 -21 -3 -33 2
-30 14 1 7 -6 11 -16 9 -9 -2 -16 1 -15 5 3 8 -5 13 -23 13 -24 0 7 -22 124
-86 117 -66 130 -77 300 -247 99 -98 176 -181 173 -185 -4 -3 -12 0 -18 6 -11
11 -48 17 -48 7 0 -2 9 -26 19 -53 17 -43 18 -54 7 -86 -7 -20 -20 -42 -28
-49 -9 -6 -18 -19 -20 -27 -3 -9 -18 14 -37 53 -51 108 -144 238 -203 284
-150 119 -220 166 -273 183 -22 7 -49 22 -60 32 -11 11 -58 45 -105 76 -96 65
-130 107 -130 163 0 51 13 81 55 128 l37 40 -12 93 c-44 357 -164 766 -307
1052 -72 144 -179 322 -260 433 -78 107 -100 142 -70 111 36 -36 117 -140 117
-149 0 -6 5 -7 10 -4 6 3 10 1 10 -4 0 -6 7 -11 15 -11 8 0 19 -9 25 -20 6
-11 16 -20 23 -20 9 0 8 3 -1 9 -7 4 -14 14 -15 22 -2 8 -5 19 -9 24 -3 6 -5
27 -3 47 2 21 0 40 -6 43 -5 4 -7 11 -4 16 4 5 1 9 -4 9 -6 0 -11 9 -11 20 0
11 -5 20 -10 20 -6 0 -10 6 -9 13 3 24 -1 38 -9 33 -5 -3 -9 1 -9 9 0 8 4 15
9 15 4 0 8 -5 8 -10 0 -6 7 -10 15 -8 9 2 31 -15 51 -37 l35 -40 -36 50 c-21
28 -41 49 -47 47 -5 -1 -7 2 -3 8 4 6 -23 45 -58 88 -78 92 -107 121 -107 102
0 -7 -3 -10 -6 -7 -4 3 -14 2 -23 -3 -14 -7 -19 -3 -28 20 -12 32 -2 57 18 44
12 -6 12 -5 1 8 -7 9 -21 14 -32 11 -11 -3 -20 -1 -20 5 0 6 -7 18 -16 26 -10
11 -11 16 -3 16 15 0 -15 35 -56 63 -22 16 -26 17 -16 4 9 -12 10 -17 2 -17
-7 0 -9 -5 -5 -12 6 -9 3 -9 -9 0 -9 8 -21 11 -28 7 -8 -6 -8 -2 -1 12 9 17 8
19 -9 18 -11 -1 -25 -8 -30 -16 -5 -8 -9 -9 -9 -4 1 6 7 19 15 29 10 13 15 15
15 6 0 -7 3 -11 6 -8 3 4 -3 19 -13 35 -17 28 -17 28 2 13 19 -14 19 -14 6 3
-8 10 -33 32 -55 49 -23 18 -38 28 -34 23 11 -12 -27 -36 -46 -29 -9 3 -16 10
-16 15 0 5 -11 2 -25 -7 -35 -23 -56 -5 -45 39 17 75 27 90 238 378 71 96 41
68 -49 -47 -80 -102 -153 -179 -200 -212 -18 -12 -25 -13 -42 -2 -18 11 -23 9
-41 -13 -31 -36 -64 -44 -83 -18 -8 12 -19 19 -24 16 -5 -4 -9 -1 -9 5 0 8 -7
9 -17 5 -29 -12 -63 -14 -63 -4 0 6 -6 7 -12 3 -10 -6 -10 -5 -2 7 9 11 9 17
-2 27 -8 7 -14 10 -14 5 0 -4 -6 2 -14 13 -14 19 -15 19 -34 -3 -10 -13 -23
-19 -27 -15 -5 4 -5 1 -1 -6 4 -7 26 -22 49 -33 51 -26 140 -90 133 -96 -2 -2
-48 22 -103 55 -151 91 -366 197 -493 242 -62 22 -116 43 -119 47 -3 3 1 4 10
0 9 -3 38 -9 64 -13 26 -3 81 -24 121 -46 82 -44 188 -83 178 -66 -5 7 -2 9 9
5 14 -5 15 -2 6 20 -7 20 -6 30 7 44 9 10 17 32 18 48 1 20 5 27 16 25 8 -3
-30 18 -85 46 -109 54 -323 128 -534 185 -146 39 -154 42 -146 55 3 5 -3 18
-13 28 -19 19 -18 20 8 88 35 88 54 205 47 290 -8 107 -23 98 -29 -18z m-1062
-476 c-8 -7 -24 7 -47 41 l-22 32 36 -34 c20 -19 35 -37 33 -39z m139 -122
c10 -11 16 -20 13 -20 -3 0 -13 9 -23 20 -10 11 -16 20 -13 20 3 0 13 -9 23
-20z m96 -97 c13 -16 12 -17 -3 -4 -10 7 -18 15 -18 17 0 8 8 3 21 -13z m159
-228 c7 -9 8 -15 2 -15 -5 0 -12 7 -16 15 -3 8 -4 15 -2 15 2 0 9 -7 16 -15z
m-428 -115 c43 0 53 -5 115 -59 37 -32 109 -84 158 -116 77 -49 147 -104 239
-187 27 -25 38 -23 71 12 16 17 88 64 160 105 71 41 179 113 239 161 l109 87
51 -10 c150 -30 486 -143 638 -215 53 -25 65 -34 57 -45 -16 -19 -10 -17 98
26 182 72 293 97 329 73 24 -16 34 -55 44 -165 14 -167 42 -300 111 -541 94
-326 172 -660 208 -896 45 -291 52 -380 55 -705 2 -242 1 -269 -3 -110 -6 227
-21 256 -21 42 0 -246 -38 -643 -80 -833 -79 -361 -157 -600 -288 -884 -21
-47 -42 -92 -45 -100 -4 -8 -28 -55 -54 -104 -46 -86 -73 -116 -73 -81 0 20
-20 40 -39 40 -24 0 -31 82 -8 97 8 5 5 8 -10 8 -12 0 -25 5 -28 10 -3 6 -12
10 -18 10 -8 0 -8 -3 1 -9 10 -6 10 -10 -3 -21 -8 -7 -15 -9 -15 -4 0 5 -18
-22 -39 -61 -35 -64 -37 -72 -23 -87 10 -13 11 -18 3 -18 -8 0 -10 -8 -6 -22
l6 -23 -18 21 c-17 19 -20 19 -33 6 -35 -36 -49 -66 -38 -79 6 -7 8 -24 6 -38
-4 -17 0 -29 11 -35 14 -8 14 -9 -1 -10 -10 0 -17 -5 -15 -11 5 -24 -43 -19
-65 6 -15 18 -28 23 -42 19 -12 -4 0 10 25 29 137 106 370 585 488 1004 132
466 177 1078 121 1633 -14 133 -41 312 -47 306 -3 -2 2 -62 11 -133 49 -396
49 -871 0 -1238 -71 -531 -292 -1141 -530 -1462 -45 -60 -64 -77 -116 -101
-64 -30 -139 -55 -91 -31 26 14 42 44 17 35 -9 -3 -28 -9 -42 -12 -15 -4 -31
-10 -37 -14 -5 -4 -23 -10 -39 -14 -35 -8 -18 -26 18 -20 12 3 8 -2 -11 -11
-17 -8 -80 -24 -139 -36 -84 -17 -114 -19 -136 -11 -36 13 -26 -3 15 -24 24
-13 47 -15 103 -11 39 4 80 10 90 14 12 4 7 -3 -11 -19 -16 -14 -45 -29 -62
-32 -18 -4 -35 -12 -38 -17 -4 -5 -26 -9 -50 -9 -35 0 -45 -4 -50 -20 -3 -11
-9 -19 -13 -17 -4 1 -17 -8 -29 -20 -13 -13 -29 -20 -37 -17 -9 3 -22 -9 -37
-35 -17 -32 -29 -41 -49 -41 -39 0 -68 26 -81 73 -22 81 -59 252 -64 297 -9
67 -25 149 -41 204 -22 77 -19 102 14 114 15 5 51 31 80 56 30 25 58 44 63 40
16 -9 51 -85 75 -159 12 -38 23 -63 23 -54 2 30 -40 152 -77 224 -61 123 -202
236 -349 280 -62 19 -63 19 -28 -10 l30 -25 -47 0 c-42 0 -48 3 -48 20 0 11 7
23 15 26 12 5 13 10 4 20 -7 9 -10 87 -7 251 3 233 4 239 30 295 14 31 37 64
51 73 14 9 79 25 144 35 284 46 467 132 619 291 79 84 116 139 174 262 75 160
110 318 76 346 -20 16 -28 -1 -55 -114 -64 -262 -235 -486 -456 -597 -79 -40
-229 -84 -363 -107 -139 -23 -147 -27 -191 -76 -77 -88 -90 -157 -91 -471 0
-195 -2 -213 -20 -236 -20 -26 -20 -51 -1 -87 6 -11 11 -29 11 -40 0 -13 13
-30 33 -42 l32 -21 -35 7 c-85 15 -131 17 -199 5 -40 -7 -74 -10 -77 -7 -2 2
-7 35 -11 72 -5 54 -11 72 -30 88 l-23 21 37 39 38 38 -2 254 c-1 267 -5 299
-49 365 -40 60 -62 68 -289 106 -198 33 -354 106 -482 228 -97 91 -174 198
-218 300 -16 38 -34 68 -39 67 -5 -2 -13 4 -18 13 -14 26 -36 152 -31 183 4
27 4 27 -12 8 -20 -25 -16 -65 20 -190 58 -198 173 -376 318 -490 146 -116
284 -172 522 -211 172 -29 192 -40 222 -128 15 -43 18 -86 18 -282 0 -174 -3
-235 -13 -246 -7 -9 -36 -24 -65 -33 -150 -48 -293 -171 -360 -309 -22 -43
-43 -92 -48 -110 -11 -36 -64 -283 -74 -338 -8 -52 -28 -68 -83 -68 -43 1 -46
2 -28 15 11 8 18 16 15 19 -2 2 -31 6 -64 10 -65 7 -67 -8 -3 -25 28 -7 25 -8
-18 -4 -63 5 -311 87 -363 120 -47 29 -70 58 -155 197 -131 214 -234 446 -316
708 -55 176 -62 195 -54 150 10 -58 91 -315 129 -412 34 -86 46 -153 30 -177
-3 -6 -11 -9 -16 -6 -5 4 -9 0 -9 -9 0 -8 4 -16 8 -18 5 -1 5 -16 1 -33 -7
-24 -17 -33 -48 -43 -23 -6 -48 -12 -57 -12 -11 0 -15 -6 -11 -20 3 -11 4 -20
2 -20 -5 0 -73 117 -103 175 -33 67 -99 230 -128 315 -17 52 -18 54 -24 25 -4
-25 -10 -14 -37 75 -111 365 -151 644 -160 1110 -6 345 2 487 43 780 13 100
23 184 21 187 -3 2 -9 -27 -15 -64 -6 -37 -25 -149 -42 -248 -18 -99 -38 -218
-47 -265 -8 -47 -18 -161 -22 -255 -5 -93 -11 -181 -14 -195 -4 -13 -8 -39 -9
-57 -1 -18 -4 -30 -6 -28 -3 3 -15 -15 -27 -39 -22 -43 -25 -114 -9 -193 5
-24 2 -34 -9 -39 -9 -3 -13 -13 -9 -26 3 -11 -1 -24 -9 -29 -8 -5 -9 -9 -3 -9
13 0 12 -66 -2 -80 -5 -4 -16 -10 -24 -12 -24 -5 -42 -27 -36 -44 3 -8 2 -13
-3 -9 -5 3 -18 -6 -29 -20 -11 -14 -28 -25 -38 -25 -20 1 -74 64 -74 86 0 7
-8 19 -18 26 -28 19 -40 49 -47 109 -3 30 -13 79 -21 109 -12 44 -13 75 -6
155 11 126 6 305 -13 460 -55 457 -54 516 12 680 38 95 131 273 204 390 75
121 242 326 380 469 139 144 166 166 179 146 15 -25 62 191 98 450 13 91 31
110 103 110 55 0 191 -41 335 -101 l96 -40 16 22 c30 44 281 147 530 220 59
17 112 35 117 39 17 14 79 29 100 24 11 -2 41 -4 67 -4z m2664 -198 c1 -7 0
-8 -3 -2 -2 5 -9 8 -14 4 -5 -3 -9 0 -9 6 0 15 23 7 26 -8z m254 -280 c-7 -3
-16 2 -21 9 -16 25 -9 32 12 13 13 -12 16 -20 9 -22z m30 -27 c7 -9 11 -17 8
-20 -2 -2 -12 4 -21 15 -9 11 -13 20 -8 20 5 0 14 -7 21 -15z m-185 -35 c10
-11 16 -20 13 -20 -3 0 -13 9 -23 20 -10 11 -16 20 -13 20 3 0 13 -9 23 -20z
m-142 -277 c109 -102 206 -204 265 -279 23 -28 31 -46 26 -59 -6 -14 -4 -17 8
-12 22 8 29 -2 18 -23 -7 -13 -3 -22 15 -39 14 -11 30 -21 35 -21 6 0 28 -28
50 -62 28 -43 37 -65 30 -73 -7 -8 -4 -18 11 -31 28 -25 49 -67 49 -96 0 -13
-13 -39 -28 -57 l-28 -34 30 -32 c17 -18 35 -30 40 -28 4 3 12 -1 17 -8 6 -10
9 -10 9 -2 0 9 7 7 20 -4 11 -10 20 -27 20 -40 0 -12 5 -25 11 -28 6 -4 8 -14
4 -22 -3 -9 1 -23 10 -33 17 -19 55 -124 55 -152 0 -33 -33 -16 -57 30 -12 23
-19 42 -15 42 4 0 1 4 -6 9 -7 4 -23 6 -36 4 -20 -4 -23 -11 -24 -60 -1 -35 4
-63 14 -79 10 -14 14 -33 10 -48 -4 -15 -1 -26 7 -29 8 -4 8 -8 2 -14 -14 -11
-20 -77 -6 -69 10 7 8 -25 -4 -44 -3 -6 3 -10 15 -10 12 0 19 -4 16 -9 -3 -5
1 -14 9 -21 25 -21 18 -40 -16 -40 -23 0 -30 -4 -26 -14 3 -8 -7 -28 -23 -44
-16 -17 -26 -33 -23 -36 4 -3 -7 -6 -23 -6 -35 0 -58 18 -44 35 6 7 1 15 -13
25 -20 12 -21 12 -8 -3 11 -15 11 -17 -2 -17 -11 0 -14 7 -11 25 4 24 -11 36
-18 15 -2 -6 -13 -12 -26 -15 -13 -2 -20 0 -17 6 4 5 9 7 13 5 4 -2 13 2 19
10 11 11 6 21 -27 56 -22 24 -40 49 -40 56 0 6 -5 12 -11 12 -6 0 -9 7 -6 15
4 8 2 17 -4 21 -6 4 -5 12 3 22 10 12 10 14 1 8 -8 -4 -13 -2 -13 4 0 6 -4 8
-10 5 -5 -3 -10 -1 -10 4 0 6 -3 10 -7 10 -22 -4 -29 4 -31 33 -2 18 -8 36
-15 40 -9 6 -9 10 1 17 19 11 22 77 4 73 -8 -1 -11 1 -8 6 3 5 -6 24 -19 42
-14 19 -22 36 -17 39 12 10 13 39 1 47 -8 5 -9 3 -4 -6 5 -9 4 -11 -3 -6 -9 5
-9 13 -1 27 14 27 -17 81 -33 58 -8 -11 -9 -10 -4 4 3 10 -1 31 -9 47 -8 16
-15 39 -15 51 0 19 -12 45 -67 150 -27 52 -133 620 -133 712 0 65 11 75 33 29
10 -23 42 -63 70 -89z m487 -777 c0 -3 -4 -8 -10 -11 -5 -3 -10 -1 -10 4 0 6
5 11 10 11 6 0 10 -2 10 -4z m-5533 -188 c-3 -8 -6 -5 -6 6 -1 11 2 17 5 13 3
-3 4 -12 1 -19z m-46 -209 c-5 -13 -10 -19 -10 -12 -1 15 10 45 15 40 3 -2 0
-15 -5 -28z m-21 -66 c-11 -17 -11 -17 -6 0 3 10 6 24 7 30 0 9 2 9 5 0 3 -7
0 -20 -6 -30z m-16 -62 c-4 -17 -9 -30 -11 -27 -3 2 -2 19 2 36 9 41 17 33 9
-9z m-114 -31 c0 -5 -2 -10 -4 -10 -3 0 -8 5 -11 10 -3 6 -1 10 4 10 6 0 11
-4 11 -10z m97 -32 c-3 -8 -6 -5 -6 6 -1 11 2 17 5 13 3 -3 4 -12 1 -19z
m-153 -106 c21 -42 30 -76 17 -68 -9 6 -51 90 -51 103 0 11 22 -11 34 -35z
m5809 -129 c-3 -7 -8 -13 -12 -13 -4 0 -8 6 -8 13 0 8 6 14 13 14 7 0 10 -6 7
-14z m227 -8 c0 -16 -6 -25 -15 -25 -18 0 -20 21 -3 38 17 17 18 16 18 -13z
m-100 -152 c0 -13 -39 -53 -52 -53 -15 0 -8 51 10 75 15 22 18 22 30 8 6 -9
12 -23 12 -30z m63 -423 c-3 -11 -9 -23 -14 -26 -10 -6 -12 29 -2 39 13 13 21
7 16 -13z m757 -122 c0 -6 -7 -5 -15 2 -8 7 -15 17 -15 22 0 6 7 5 15 -2 8 -7
15 -17 15 -22z m-866 -54 c3 -9 -1 -14 -12 -14 -13 0 -14 -2 -4 -9 10 -6 10
-10 -2 -20 -19 -16 -27 -1 -20 37 6 31 27 35 38 6z m-567 -56 c-3 -7 -5 -2 -5
12 0 14 2 19 5 13 2 -7 2 -19 0 -25z m-17 -88 l-11 -25 6 25 c2 14 5 36 6 50
l2 25 4 -25 c2 -14 -1 -37 -7 -50z m-5127 -45 l6 -40 -14 40 c-7 22 -13 51
-13 65 l0 25 7 -25 c4 -14 11 -43 14 -65z m558 23 c8 -15 8 -18 0 -14 -7 5 -8
1 -5 -9 4 -9 13 -14 22 -10 12 4 13 3 2 -10 -10 -12 -16 -13 -28 -3 -8 7 -22
13 -30 13 -9 0 -19 12 -22 26 -7 24 -5 26 21 27 20 0 33 -6 40 -20z m-141 -19
c0 -5 -4 -9 -10 -9 -5 0 -10 7 -10 16 0 8 5 12 10 9 6 -3 10 -10 10 -16z m113
-34 c-3 -9 -8 -14 -10 -11 -3 3 -2 9 2 15 9 16 15 13 8 -4z m-86 -122 c-8 -10
-16 -22 -16 -28 -1 -14 -33 -13 -38 1 -6 17 25 44 49 44 19 0 20 -1 5 -17z
m2023 -860 c68 -22 72 -29 54 -88 -22 -72 -70 -311 -89 -444 -18 -125 -27
-151 -53 -151 -18 0 -109 107 -136 159 -15 27 -22 31 -59 31 l-42 0 37 22 c21
12 46 38 56 59 16 31 20 34 29 21 9 -15 12 -15 36 1 15 10 27 26 27 37 0 11 5
20 10 20 6 0 6 7 -1 19 -13 19 -46 18 -62 -3 -15 -19 3 95 29 188 14 49 39
116 55 148 l30 60 17 -32 c13 -24 29 -37 62 -47z m-1235 -73 c3 -11 14 -27 23
-37 10 -9 11 -14 4 -12 -17 6 -57 69 -44 69 6 0 14 -9 17 -20z m3314 -250
c-13 -23 -25 -36 -27 -30 -4 11 40 82 46 75 2 -2 -6 -22 -19 -45z m-1118 -100
c16 -104 5 -108 -15 -5 -28 146 -28 145 -11 108 8 -18 20 -64 26 -103z m-1795
91 c-12 -19 -24 -12 -19 10 4 13 9 17 15 11 6 -6 7 -15 4 -21z m2844 -101
c-21 -32 -36 -47 -40 -40 -4 7 -10 11 -14 11 -3 -1 -6 1 -6 4 0 3 0 12 0 20 0
8 6 14 13 13 6 -2 11 3 10 10 -2 6 6 12 17 12 10 0 25 6 32 14 26 28 20 5 -12
-44z m-340 20 c-8 -5 -19 -10 -25 -10 -5 0 -3 5 5 10 8 5 20 10 25 10 6 0 3
-5 -5 -10z m-2279 -151 c115 -32 262 -113 295 -164 12 -18 13 -31 5 -57 l-9
-33 -1 29 c-1 28 -2 28 -20 12 -11 -10 -29 -41 -41 -69 -24 -56 -109 -182
-175 -260 -62 -74 -144 -132 -238 -171 -115 -48 -182 -65 -309 -76 -112 -10
-167 -27 -206 -63 -23 -22 -24 -22 -38 -3 -9 13 -14 46 -14 95 0 267 137 597
290 699 133 90 286 110 461 61z m1894 -119 c-3 -5 -11 -10 -16 -10 -6 0 -7 5
-4 10 3 6 11 10 16 10 6 0 7 -4 4 -10z m-1650 -270 c-21 -44 -45 -86 -53 -93
-9 -6 -3 9 12 35 16 28 25 55 22 66 -4 12 3 29 21 49 16 16 30 28 32 27 2 -2
-14 -39 -34 -84z m3521 -95 c-9 -9 -16 -13 -16 -8 0 12 22 34 28 28 2 -2 -3
-11 -12 -20z m-2611 -5 c4 -7 63 -9 168 -5 124 4 155 2 132 -6 -37 -14 -420
-24 -472 -13 -38 8 -38 8 32 20 91 15 132 16 140 4z m724 -191 c-22 -14 -33
-10 -19 6 7 8 17 12 22 9 6 -4 5 -10 -3 -15z m-3469 -119 c0 -5 -5 -10 -11
-10 -5 0 -7 5 -4 10 3 6 8 10 11 10 2 0 4 -4 4 -10z m4980 4 c0 -8 -19 -13
-24 -6 -3 5 1 9 9 9 8 0 15 -2 15 -3z m-1273 -15 c7 -7 29 -15 50 -18 31 -6
38 -11 36 -28 -3 -24 10 -37 47 -48 25 -8 25 -8 6 14 -39 44 33 13 102 -45 2
-1 5 -10 6 -19 3 -21 25 -35 43 -28 7 3 13 1 13 -5 0 -22 -240 -102 -445 -148
-154 -35 -370 -64 -500 -69 -106 -3 -109 -3 -74 12 28 11 38 22 43 45 4 21 10
29 21 24 16 -6 48 33 43 53 -2 6 15 21 37 34 22 12 45 27 52 34 7 6 17 13 22
15 5 1 18 19 28 38 14 24 27 35 44 36 13 1 51 15 83 33 32 17 67 31 78 31 11
0 29 5 41 12 25 14 37 17 87 24 19 3 36 7 39 9 9 10 88 4 98 -6z"/>
<path d="M7478 8554 c-39 -21 -35 -28 5 -8 37 19 44 24 31 24 -5 -1 -21 -8
-36 -16z"/>
<path d="M7324 8464 c-18 -14 -18 -15 4 -4 12 6 22 13 22 15 0 8 -5 6 -26 -11z"/>
<path d="M6959 8173 l-34 -38 38 34 c34 33 42 41 34 41 -2 0 -19 -17 -38 -37z"/>
<path d="M6879 8083 l-24 -28 28 24 c15 14 27 26 27 28 0 8 -8 1 -31 -24z"/>
<path d="M5650 8053 c18 -24 35 -43 37 -43 7 0 -35 56 -54 71 -9 8 -2 -5 17
-28z"/>
<path d="M6839 8033 c-13 -16 -12 -17 4 -4 16 13 21 21 13 21 -2 0 -10 -8 -17
-17z"/>
<path d="M5760 7890 c6 -11 13 -20 16 -20 2 0 0 9 -6 20 -6 11 -13 20 -16 20
-2 0 0 -9 6 -20z"/>
<path d="M5811 7798 c76 -151 129 -360 149 -593 20 -229 16 -213 58 -225 20
-6 71 -12 112 -15 70 -4 72 -4 30 6 -25 6 -48 16 -52 22 -4 7 -14 44 -23 83
-34 152 -153 492 -223 638 -39 80 -73 146 -76 146 -4 0 8 -28 25 -62z"/>
<path d="M6662 7745 c-17 -37 -14 -45 4 -12 9 16 14 31 11 33 -2 2 -9 -7 -15
-21z"/>
<path d="M4141 7494 c0 -11 3 -14 6 -6 3 7 2 16 -1 19 -3 4 -6 -2 -5 -13z"/>
<path d="M6571 7474 c0 -11 3 -14 6 -6 3 7 2 16 -1 19 -3 4 -6 -2 -5 -13z"/>
<path d="M4131 7454 c0 -11 3 -14 6 -6 3 7 2 16 -1 19 -3 4 -6 -2 -5 -13z"/>
<path d="M6561 7434 c0 -11 3 -14 6 -6 3 7 2 16 -1 19 -3 4 -6 -2 -5 -13z"/>
<path d="M4122 7410 c0 -14 2 -19 5 -12 2 6 2 18 0 25 -3 6 -5 1 -5 -13z"/>
<path d="M6552 7390 c0 -14 2 -19 5 -12 2 6 2 18 0 25 -3 6 -5 1 -5 -13z"/>
<path d="M4111 7364 c0 -11 3 -14 6 -6 3 7 2 16 -1 19 -3 4 -6 -2 -5 -13z"/>
<path d="M5642 7360 c0 -14 2 -19 5 -12 2 6 2 18 0 25 -3 6 -5 1 -5 -13z"/>
<path d="M6528 7282 c-28 -137 -38 -197 -38 -240 0 -38 -3 -42 -32 -51 -32 -9
-32 -9 -5 -10 41 -1 67 31 67 83 0 24 7 99 16 166 8 67 14 124 12 126 -3 2
-11 -31 -20 -74z"/>
<path d="M8072 7320 c0 -14 2 -19 5 -12 2 6 2 18 0 25 -3 6 -5 1 -5 -13z"/>
<path d="M4101 7314 c0 -11 3 -14 6 -6 3 7 2 16 -1 19 -3 4 -6 -2 -5 -13z"/>
<path d="M5650 7319 c0 -62 31 -202 50 -228 31 -45 35 -38 6 12 -16 28 -28 71
-36 132 -10 80 -20 122 -20 84z"/>
<path d="M5927 7224 c3 -55 9 -112 14 -129 6 -19 7 13 3 90 -3 66 -9 124 -14
129 -5 5 -6 -36 -3 -90z"/>
<path d="M4085 7245 c-3 -26 -4 -49 -2 -51 3 -3 8 16 12 41 3 26 4 49 2 51 -3
3 -8 -16 -12 -41z"/>
<path d="M8082 7275 c-1 -11 5 -49 12 -85 8 -36 14 -56 14 -45 1 11 -5 49 -12
85 -8 36 -14 56 -14 45z"/>
<path d="M6388 6973 c6 -2 18 -2 25 0 6 3 1 5 -13 5 -14 0 -19 -2 -12 -5z"/>
<path d="M4301 6314 c0 -11 3 -14 6 -6 3 7 2 16 -1 19 -3 4 -6 -2 -5 -13z"/>
<path d="M4411 5354 c0 -11 3 -14 6 -6 3 7 2 16 -1 19 -3 4 -6 -2 -5 -13z"/>
<path d="M4421 5314 c0 -11 3 -14 6 -6 3 7 2 16 -1 19 -3 4 -6 -2 -5 -13z"/>
<path d="M6025 4951 c-6 -5 -27 -14 -48 -21 -21 -7 -36 -14 -33 -17 8 -8 73
17 86 33 14 15 10 19 -5 5z"/>
<path d="M7890 4924 c0 -8 5 -12 10 -9 6 3 10 10 10 16 0 5 -4 9 -10 9 -5 0
-10 -7 -10 -16z"/>
<path d="M5868 4884 c-16 -8 -28 -17 -28 -19 0 -6 32 6 55 22 26 18 7 16 -27
-3z"/>
<path d="M7846 4802 c-24 -50 -49 -119 -38 -107 13 15 64 136 60 141 -3 2 -13
-13 -22 -34z"/>
<path d="M7786 4663 c-6 -14 -5 -15 5 -6 7 7 10 15 7 18 -3 3 -9 -2 -12 -12z"/>
<path d="M7856 4634 c-10 -21 -28 -57 -38 -78 -17 -33 -17 -38 -4 -33 11 4 16
1 16 -11 0 -15 2 -15 10 -2 6 10 10 11 10 3 0 -7 4 -13 10 -13 5 0 7 8 3 18
-7 18 -5 17 17 -12 10 -13 10 -17 3 -12 -7 4 -13 3 -13 -1 0 -5 9 -14 21 -21
12 -8 18 -9 15 -3 -4 5 3 16 13 24 15 10 22 29 26 78 3 35 8 73 11 84 6 18 5
19 -10 5 -9 -9 -17 -27 -18 -42 -2 -21 -5 -25 -19 -18 -11 7 -15 18 -11 36 3
18 1 25 -6 20 -6 -3 -12 -1 -14 6 -2 6 -12 -6 -22 -28z"/>
<path d="M4545 4650 c3 -5 8 -10 11 -10 2 0 4 5 4 10 0 6 -5 10 -11 10 -5 0
-7 -4 -4 -10z"/>
<path d="M7677 4466 c-20 -36 -37 -69 -37 -73 1 -12 38 38 61 80 35 67 15 61
-24 -7z"/>
<path d="M6921 4354 c0 -11 3 -14 6 -6 3 7 2 16 -1 19 -3 4 -6 -2 -5 -13z"/>
<path d="M7581 4316 c-22 -29 -52 -63 -67 -75 -24 -19 -25 -21 -7 -21 27 0 70
44 99 102 13 27 22 48 19 48 -2 0 -22 -24 -44 -54z"/>
<path d="M6931 4314 c0 -11 3 -14 6 -6 3 7 2 16 -1 19 -3 4 -6 -2 -5 -13z"/>
<path d="M4950 4246 c0 -2 8 -10 18 -17 15 -13 16 -12 3 4 -13 16 -21 21 -21
13z"/>
<path d="M5094 4165 c25 -19 116 -45 153 -44 19 1 2 10 -57 29 -98 33 -125 37
-96 15z"/>
<path d="M6962 4160 c0 -14 2 -19 5 -12 2 6 2 18 0 25 -3 6 -5 1 -5 -13z"/>
<path d="M7130 4110 c-35 -7 -35 -7 -5 -9 17 0 37 4 45 9 17 11 11 11 -40 0z"/>
<path d="M8530 7211 c0 -5 5 -13 10 -16 6 -3 10 -2 10 4 0 5 -4 13 -10 16 -5
3 -10 2 -10 -4z"/>
<path d="M8930 7091 c0 -6 4 -13 10 -16 6 -3 7 1 4 9 -7 18 -14 21 -14 7z"/>
<path d="M8747 6693 c-4 -3 -7 -11 -7 -17 0 -6 5 -5 12 2 6 6 9 14 7 17 -3 3
-9 2 -12 -2z"/>
<path d="M8797 6609 c7 -7 15 -10 18 -7 3 3 -2 9 -12 12 -14 6 -15 5 -6 -5z"/>
<path d="M7693 9224 c15 -8 25 -20 21 -26 -4 -7 -9 -6 -15 3 -8 14 -10 11 -13
-21 0 -8 -13 -21 -28 -28 -32 -15 -57 -52 -36 -52 10 0 10 -2 1 -8 -9 -5 2
-15 31 -30 32 -15 46 -18 49 -9 3 9 9 8 23 -3 18 -14 18 -14 5 2 -8 11 -11 28
-7 44 6 22 4 25 -13 19 -21 -6 -38 10 -21 20 6 4 8 11 5 16 -4 5 1 9 9 9 14 0
18 6 15 26 0 4 5 10 12 14 8 6 2 13 -19 24 -39 20 -57 20 -19 0z"/>
<path d="M7805 9070 c-3 -5 -1 -10 4 -10 6 0 11 5 11 10 0 6 -2 10 -4 10 -3 0
-8 -4 -11 -10z"/>
<path d="M8909 8135 c5 -11 17 -29 26 -40 l16 -20 -10 20 c-5 11 -17 29 -26
40 l-16 20 10 -20z"/>
<path d="M8821 8039 c8 -5 6 -9 -7 -12 -13 -3 -10 -5 9 -6 16 0 26 3 22 8 -3
5 5 11 17 14 13 2 6 4 -15 4 -21 0 -33 -4 -26 -8z"/>
<path d="M8837 8003 c-12 -11 -8 -23 8 -23 8 0 15 7 15 15 0 16 -12 20 -23 8z"/>
<path d="M9687 7596 c-15 -31 -25 -56 -22 -56 9 0 57 90 53 100 -2 6 -16 -14
-31 -44z"/>
<path d="M9753 7593 c4 -6 -1 -17 -10 -24 -21 -18 -106 -149 -100 -155 2 -2
32 36 65 85 39 58 57 93 50 97 -6 4 -8 3 -5 -3z"/>
<path d="M9912 7200 c-23 -16 -46 -30 -52 -30 -5 0 -10 -7 -10 -16 0 -12 8 -9
33 12 18 16 44 37 57 46 14 9 22 17 19 17 -3 1 -25 -12 -47 -29z"/>
<path d="M9508 7188 c-37 -51 -60 -89 -55 -94 2 -2 17 15 34 39 53 74 72 123
21 55z"/>
<path d="M2401 6694 c0 -11 3 -14 6 -6 3 7 2 16 -1 19 -3 4 -6 -2 -5 -13z"/>
<path d="M9310 6509 c0 -8 7 -24 15 -35 18 -24 19 -7 0 26 -9 16 -14 19 -15 9z"/>
<path d="M9385 6390 c10 -11 20 -20 23 -20 3 0 -3 9 -13 20 -10 11 -20 20 -23
20 -3 0 3 -9 13 -20z"/>
<path d="M10385 6180 c4 -6 11 -8 16 -5 14 9 11 15 -7 15 -8 0 -12 -5 -9 -10z"/>
<path d="M2385 4910 c-3 -5 -1 -10 4 -10 6 0 11 5 11 10 0 6 -2 10 -4 10 -3 0
-8 -4 -11 -10z"/>
<path d="M3370 4770 c-15 -55 -7 -63 9 -9 7 22 10 43 7 46 -2 3 -10 -14 -16
-37z"/>
<path d="M9464 4493 c-117 -204 -456 -629 -520 -653 -22 -9 -31 -36 -25 -72 4
-30 -68 25 -199 149 -143 135 -175 157 -64 42 232 -240 242 -253 288 -403 6
-17 8 -17 31 -2 28 18 39 21 30 6 -10 -16 11 -12 25 5 11 13 10 14 -4 9 -15
-6 -17 -1 -14 30 2 20 6 35 10 34 3 -2 16 6 29 17 22 19 23 19 9 1 -13 -18
-13 -19 0 -11 26 16 82 69 92 89 7 13 6 21 -3 27 -8 4 -15 16 -15 26 -1 10 -3
25 -5 33 -3 10 2 14 14 12 9 -2 17 2 17 8 0 5 -4 10 -9 10 -17 0 -20 29 -5 45
9 8 11 15 5 15 -16 0 -61 -22 -61 -31 0 -4 -7 -9 -15 -13 -21 -8 -8 15 47 81
24 29 70 85 103 125 33 40 76 98 95 128 19 30 40 61 47 68 24 25 13 26 -12 2
l-26 -24 13 30 c7 16 23 43 35 59 l22 30 -9 -35 -10 -35 24 26 c21 23 47 71
71 134 10 26 24 85 20 85 -2 0 -15 -21 -31 -47z m-487 -765 c-3 -8 -6 -5 -6 6
-1 11 2 17 5 13 3 -3 4 -12 1 -19z"/>
<path d="M2830 4395 c0 -8 4 -15 10 -15 5 0 7 7 4 15 -4 8 -8 15 -10 15 -2 0
-4 -7 -4 -15z"/>
<path d="M3267 4362 c-9 -21 -17 -55 -17 -75 0 -42 -1 -42 -40 -22 -16 9 -49
17 -72 20 -164 16 -254 30 -260 39 -5 7 -8 4 -8 -6 0 -13 12 -18 48 -23 159
-19 274 -50 325 -86 16 -12 30 -19 31 -17 4 4 17 208 13 208 -2 0 -11 -17 -20
-38z"/>
<path d="M9510 4179 c0 -5 5 -7 10 -4 6 3 10 8 10 11 0 2 -4 4 -10 4 -5 0 -10
-5 -10 -11z"/>
<path d="M9216 3998 c5 -8 2 -9 -9 -5 -10 3 -17 2 -17 -3 0 -6 6 -10 13 -10 8
0 7 -3 -3 -9 -8 -6 -17 -8 -20 -6 -4 2 -7 -2 -7 -10 0 -8 4 -15 8 -15 5 0 7
-6 6 -12 -2 -7 1 -3 7 10 5 12 14 22 19 22 4 0 5 -5 2 -10 -4 -6 6 -5 22 2 42
18 48 25 33 43 -15 18 -65 21 -54 3z"/>
<path d="M9196 3841 c-3 -5 1 -14 9 -21 12 -10 15 -10 15 3 0 19 -16 31 -24
18z"/>
<path d="M3075 3720 c3 -5 14 -10 23 -10 15 0 15 2 2 10 -20 13 -33 13 -25 0z"/>
<path d="M3011 3706 c2 -2 15 -9 29 -15 24 -11 24 -11 6 3 -16 13 -49 24 -35
12z"/>
<path d="M9074 3628 l-19 -23 23 19 c21 18 27 26 19 26 -2 0 -12 -10 -23 -22z"/>
<path d="M8977 3533 c-4 -3 -7 -11 -7 -17 0 -6 5 -5 12 2 6 6 9 14 7 17 -3 3
-9 2 -12 -2z"/>
<path d="M2490 3403 c0 -5 7 -19 16 -32 13 -17 19 -20 25 -10 4 7 5 17 3 21
-8 13 -44 30 -44 21z"/>
<path d="M7821 3155 c29 -43 59 -76 59 -66 0 6 -16 28 -36 49 -20 20 -31 28
-23 17z"/>
<path d="M6160 3011 c0 -17 5 -33 11 -36 6 -4 8 -13 5 -21 -7 -19 8 -18 24 1
11 13 10 22 -3 50 -20 43 -37 45 -37 6z"/>
<path d="M5160 2910 c0 -5 5 -10 11 -10 5 0 7 5 4 10 -3 6 -8 10 -11 10 -2 0
-4 -4 -4 -10z"/>
</g>
</svg>
